<svg width="32" height="33" viewBox="0 0 32 33" fill="none" xmlns="http://www.w3.org/2000/svg">
<path d="M25.6919 26.8044C25.6919 28.0856 24.6467 29.0634 23.3992 29.0634H5.25975C3.97853 29.0634 2.96704 28.0519 2.96704 26.8044V8.59759C2.96704 7.35009 4.01225 6.3386 5.25975 6.3386H14.5318L17.4651 3.40527H5.25975C2.36015 3.40527 0 5.7317 0 8.59759V26.8044C0 29.704 2.36015 32.0305 5.25975 32.0305H23.4329C26.3325 32.0305 28.6926 29.704 28.6926 26.8044V14.5654L25.7593 17.4987V26.8044H25.6919Z" fill="black"/>
<path d="M31.3555 4.78772L27.2422 0.708044C26.8038 0.269731 26.1969 0 25.5901 0C24.9494 0 24.3763 0.236015 23.9379 0.674327L8.76559 15.8467C8.36099 16.2513 8.12498 16.7907 8.09126 17.3639L7.82153 21.7133C7.78781 22.3877 8.02383 23.062 8.49586 23.534C8.93417 23.9723 9.54106 24.2083 10.148 24.2083C10.1817 24.2083 10.2491 24.2083 10.2828 24.2083L14.6659 23.9386C15.2391 23.9049 15.7786 23.6689 16.1832 23.2643L31.3218 8.12564C31.7601 7.68733 31.9962 7.08044 31.9962 6.47354C32.0299 5.83293 31.7939 5.22604 31.3555 4.78772ZM21.679 7.11415L24.9494 10.3846L17.3633 17.9371L14.0928 14.6666L21.679 7.11415ZM14.2614 21.039L10.7886 21.2413L10.9909 17.7685L11.9686 16.7907L15.2391 20.0612L14.2614 21.039ZM27.0061 8.26051L23.7694 5.02374L25.5901 3.20305L28.8605 6.47354L27.0061 8.26051Z" fill="black"/>
</svg>
