<svg width="32" height="32" viewBox="0 0 32 32" fill="none"><path d="M21.8947 11.7895C21.8947 15.0737 19.2842 17.6842 16 17.6842C12.7158 17.6842 10.1053 15.0737 10.1053 11.7895C10.1053 8.50526 12.7158 5.89474 16 5.89474C19.2842 5.89474 21.8947 8.50526 21.8947 11.7895ZM9.17895 32H22.8211C25.1789 32 27.2842 30.9895 28.7158 29.3895C26.7789 24.2526 21.8105 20.6316 16 20.6316C10.1895 20.6316 5.22105 24.2526 3.28421 29.3895C4.71579 30.9895 6.82105 32 9.17895 32ZM2.94737 25.0105C2.69474 24.2526 2.52632 23.4947 2.52632 22.7368V9.26316C2.52632 5.55789 5.55789 2.52632 9.26316 2.52632H22.7368C26.4421 2.52632 29.4737 5.55789 29.4737 9.26316V22.7368C29.4737 23.4947 29.3053 24.2526 29.0526 25.0105C29.6421 25.7684 30.2316 26.5263 30.7368 27.2842C31.5789 25.9368 32 24.4211 32 22.7368V9.26316C32 4.21053 27.7895 0 22.7368 0H9.26316C4.21053 0 0 4.21053 0 9.26316V22.7368C0 24.4211 0.421053 25.9368 1.26316 27.2842C1.76842 26.5263 2.27368 25.6842 2.94737 25.0105Z" fill="black"/></svg>