<svg width="17" height="17" viewBox="0 0 17 17" fill="none" xmlns="http://www.w3.org/2000/svg">
<path d="M16.7175 15.3909L12.5483 11.2167C14.6446 8.48834 14.4349 4.54733 11.9195 2.05213C10.5453 0.676269 8.7751 0 6.98165 0C5.1882 0 3.41804 0.676269 2.04383 2.05213C-0.681278 4.78052 -0.681278 9.21125 2.04383 11.9396C3.41804 13.3155 5.1882 13.9918 6.98165 13.9918C8.47231 13.9918 9.96297 13.5254 11.1974 12.5693L15.3899 16.7202C15.5762 16.9067 15.8091 17 16.0654 17C16.2983 17 16.5545 16.9067 16.7408 16.7202C17.0902 16.3704 17.0902 15.7641 16.7175 15.3909ZM7.00494 12.1029C5.63074 12.1029 4.37299 11.5665 3.39475 10.6104C1.41496 8.62826 1.41496 5.38683 3.39475 3.38134C4.3497 2.42524 5.63074 1.88889 7.00494 1.88889C8.37914 1.88889 9.63688 2.42524 10.6151 3.38134C11.5934 4.33745 12.1058 5.62003 12.1058 6.99589C12.1058 8.37174 11.5701 9.631 10.6151 10.6104C9.66018 11.5899 8.35585 12.1029 7.00494 12.1029Z" fill="#727272"/>
</svg>
